<svg width="2329" height="1074" viewBox="0 0 2329 1074" fill="none" xmlns="http://www.w3.org/2000/svg">
<g clip-path="url(#clip0_6858_49111)">
<path d="M1100.77 261.687C1160.61 270.432 1214.71 251.198 1265.24 220.218C1325.44 183.298 1380.61 139.149 1442.99 105.629C1523.97 62.1244 1617.45 29.9829 1710.22 31.0806C1793.29 32.0532 1883.64 56.0361 1936.69 124.371C1992.22 195.898 1995.89 291.954 2023.1 375.226C2036.84 417.275 2057.12 456.438 2088.56 488.012C2122.48 522.074 2164.46 546.383 2203.34 574.114C2242.22 601.845 2281.28 636.459 2298.48 682.308C2315.85 728.617 2303.22 776.688 2275.76 816.171C2219.71 896.724 2118.32 940.99 2024.97 959.538C1810.19 1002.23 1599.84 918.851 1399.64 851.514C1293.58 815.839 1185.36 783.465 1073.47 773.19C966.569 763.365 861.037 778.835 759.47 812.635C659.493 845.911 565.123 893.779 471.918 942.422C425.112 966.856 378.622 992.05 331.126 1015.12C283.604 1038.2 230.214 1059.89 176.28 1055.01C128.559 1050.68 89.0155 1022.55 64.9857 981.809C41.6117 942.154 34.8313 896.329 39.3329 850.994C47.9773 763.89 95.7959 692.393 150.825 627.318C256.624 502.179 387.498 394.255 530.867 314.908C668.256 238.883 835.71 181.44 992.896 224.459C1029.7 234.534 1063 255.661 1100.77 261.727C1109.16 263.072 1112.35 250.197 1103.92 248.84C1083.69 245.589 1066.41 237.83 1047.79 229.753C1029.17 221.677 1008.26 214.53 987.741 209.402C950.905 200.177 912.752 196.273 874.81 196.769C792.849 197.861 711.917 218.988 636.311 249.673C477.413 314.163 334.023 419.35 213.244 540.141C159.926 593.46 105.868 651.87 68.7599 717.982C24.5904 796.658 5.5571 899.144 49.8453 981.898C69.3972 1018.41 100.797 1048.05 140.507 1061.13C191.663 1077.98 246.902 1065 295.341 1045.58C343.781 1026.15 391.973 999.247 439.221 974.508C488.01 948.968 536.743 923.296 586.281 899.259C683.681 851.992 785.472 810.475 892.777 792.577C1008.28 773.322 1124.55 787.277 1237.2 816.149C1454.67 871.828 1662.63 980.887 1891.15 984.296C1989.18 985.756 2089.59 967.465 2175.74 919.083C2252.56 875.953 2337.26 795.869 2317.04 698.576C2296.11 597.84 2187.27 555.663 2116.77 495.872C2079.5 464.271 2054.47 425.262 2038.48 379.297C2023.11 335.119 2014.96 288.896 2003.27 243.694C1992.29 201.217 1977.95 158.548 1951.95 122.687C1924.49 84.7842 1885.33 57.645 1841.91 40.9571C1766.03 11.7959 1679.56 12.3836 1601.38 30.8819C1513.3 51.7161 1432.42 91.9926 1357.51 142.047C1304.21 177.661 1252.07 221.96 1190.15 241.77C1162.17 250.718 1132.95 253.053 1103.89 248.815C1095.51 247.589 1092.3 260.464 1100.74 261.701L1100.77 261.687Z" fill="#F8F1C9"/>
</g>
<defs>
<clipPath id="clip0_6858_49111">
<rect width="2299" height="1006" fill="white" transform="translate(2328.34 1005.87) rotate(178.31)"/>
</clipPath>
</defs>
</svg>
