<svg width="438" height="333" viewBox="0 0 438 333" fill="none" xmlns="http://www.w3.org/2000/svg">
<path d="M365.457 313.5C361.677 313.5 357.837 312.991 354.007 311.921C330.077 305.232 315.797 279.251 322.107 253.885C327.407 232.578 345.547 218.48 365.407 218.48C369.187 218.48 373.027 218.989 376.857 220.059C400.787 226.748 415.067 252.729 408.757 278.095C403.457 299.402 385.317 313.5 365.457 313.5ZM365.457 332.464C393.877 332.464 418.797 312.101 426.047 282.94C434.857 247.503 414.837 211.081 381.407 201.732C376.167 200.269 370.777 199.527 365.397 199.527C336.977 199.527 312.057 219.89 304.807 249.051C295.997 284.487 316.017 320.909 349.447 330.259C354.687 331.722 360.077 332.464 365.457 332.464V332.464Z" fill="#F8F1C9"/>
<path d="M365.467 279.028C364.417 279.028 363.357 278.88 362.307 278.583C358.027 277.385 355.787 274.29 354.827 272.551C353.867 270.813 352.437 267.209 353.567 262.672C354.987 256.948 359.857 252.962 365.417 252.962C366.467 252.962 367.527 253.111 368.577 253.408C375.127 255.241 379.047 262.375 377.327 269.318C375.907 275.043 371.037 279.028 365.477 279.028" fill="#F8F1C9"/>
<path d="M249.877 275.795C248.267 275.795 246.627 275.626 244.977 275.286C231.337 272.435 222.467 258.411 225.147 243.952C227.507 231.243 238.037 222.423 249.817 222.423C251.427 222.423 253.067 222.593 254.717 222.932C268.357 225.784 277.227 239.808 274.547 254.266C272.187 266.976 261.657 275.795 249.877 275.795ZM249.877 293.031C269.597 293.031 286.677 278.127 290.497 257.605C292.637 246.093 290.417 234.391 284.257 224.649C278.097 214.908 268.717 208.293 257.857 206.025C255.207 205.474 252.507 205.187 249.817 205.187C230.097 205.187 213.017 220.091 209.197 240.613C207.057 252.125 209.277 263.828 215.437 273.569C221.597 283.311 230.977 289.925 241.837 292.194C244.487 292.745 247.187 293.031 249.877 293.031Z" fill="#F8F1C9"/>
<path d="M158.167 251.394C156.557 251.394 154.917 251.224 153.267 250.885C139.627 248.033 130.757 234.009 133.437 219.551C135.797 206.841 146.327 198.022 158.107 198.022C159.717 198.022 161.357 198.191 163.007 198.531C176.647 201.382 185.517 215.406 182.837 229.865C180.477 242.574 169.947 251.394 158.167 251.394ZM158.167 268.629C177.887 268.629 194.967 253.726 198.787 233.204C200.927 221.692 198.707 209.989 192.547 200.248C186.387 190.506 177.007 183.892 166.147 181.623C163.497 181.072 160.797 180.786 158.107 180.786C138.387 180.786 121.307 195.69 117.487 216.212C115.347 227.723 117.567 239.426 123.727 249.167C129.887 258.909 139.267 265.524 150.127 267.792C152.777 268.343 155.477 268.629 158.167 268.629Z" fill="#F8F1C9"/>
<path d="M85.9574 183.139C84.3474 183.139 82.7074 182.97 81.0574 182.63C67.4174 179.779 58.5474 165.755 61.2274 151.296C63.5874 138.587 74.1174 129.767 85.8974 129.767C87.5074 129.767 89.1474 129.937 90.7974 130.276C104.437 133.128 113.307 147.152 110.627 161.61C108.267 174.32 97.7374 183.139 85.9574 183.139ZM85.9574 200.375C105.677 200.375 122.757 185.471 126.577 164.949C128.717 153.437 126.497 141.735 120.337 131.993C114.177 122.252 104.797 115.637 93.9374 113.369C91.2874 112.818 88.5874 112.531 85.8974 112.531C66.1774 112.531 49.0974 127.435 45.2774 147.957C40.8574 171.712 55.4974 194.852 77.9074 199.538C80.5574 200.089 83.2574 200.375 85.9474 200.375L85.9574 200.375Z" fill="#F8F1C9"/>
<path d="M41.4674 94.0447C39.8574 94.0447 38.2174 93.8751 36.5674 93.5359C22.9274 90.6844 14.0574 76.6604 16.7374 62.2018C19.0974 49.4922 29.6274 40.6729 41.4074 40.6729C43.0174 40.6729 44.6574 40.8424 46.3074 41.1816C59.9474 44.0331 68.8174 58.0571 66.1374 72.5157C63.7774 85.2253 53.2474 94.0447 41.4674 94.0447ZM41.4674 111.281C61.1874 111.281 78.2674 96.3767 82.0874 75.8548C84.2274 64.343 82.0074 52.6404 75.8474 42.8989C69.6874 33.1573 60.3074 26.5428 49.4474 24.2744C46.7974 23.7232 44.0974 23.437 41.4074 23.437C21.6874 23.437 4.60742 38.3408 0.787419 58.8627C-3.63258 82.6177 11.0074 105.758 33.4174 110.443C36.0674 110.994 38.7674 111.281 41.4574 111.281L41.4674 111.281Z" fill="#F8F1C9"/>
<path d="M419.357 4.40875e-05C413.527 4.35472e-05 409.587 6.31778 411.887 11.9889C419.237 30.1257 423.027 48.146 420.577 67.0991C412.697 128.103 365.267 161.472 291.917 161.472C279.037 161.472 265.357 160.444 250.947 158.356C176.127 147.501 117.117 97.7335 115.327 8.56497C115.227 3.8055 111.567 1.55647e-05 107.077 1.51486e-05C102.497 1.47242e-05 98.7773 3.95392 98.8073 8.80879C99.9873 183.065 291.907 178.719 291.907 178.719C379.107 178.719 428.277 134.516 436.677 69.4417C439.607 46.715 435.187 25.7585 426.787 5.15175C425.507 2.0141 422.567 4.4385e-05 419.347 4.40866e-05L419.357 4.40875e-05Z" fill="#F8F1C9"/>
<path d="M266.057 9.84638e-05C258.797 9.77911e-05 255.257 9.37067 260.487 14.7026C277.277 31.8218 298.697 37.6307 314.497 41.9132C335.357 47.563 339.877 49.0789 339.877 57.7604C339.877 63.3573 334.417 75.2931 291.927 75.2931L282.897 75.2931C235.807 75.2931 223.767 62.2973 213.827 52.6617C203.947 43.0898 197.177 28.2601 196.977 8.59685C196.927 3.85857 193.357 0.0107042 188.887 0.0107038C184.337 0.0107034 180.697 3.97517 180.787 8.79825C180.897 14.6389 181.487 20.469 182.647 26.2567C185.857 42.2418 196.887 92.5395 291.927 92.5395L295.957 92.4971C353.557 92.4971 356.137 69.7174 356.137 57.7604C356.137 18.2642 302.667 34.0585 271.687 2.44877C270.167 0.901146 268.167 0.0107111 266.057 0.010711L266.057 9.84638e-05Z" fill="#F8F1C9"/>
</svg>
