<svg width="438" height="333" viewBox="0 0 438 333" fill="none" xmlns="http://www.w3.org/2000/svg">
<path d="M72.1246 18.9637C75.9046 18.9637 79.7446 19.4725 83.5746 20.5431C107.505 27.2318 121.785 53.2128 115.475 78.579C110.175 99.8853 92.0346 113.984 72.1746 113.984C68.3946 113.984 64.5546 113.475 60.7246 112.404C36.7946 105.715 22.5146 79.7344 28.8246 54.3682C34.1246 33.0619 52.2646 18.9637 72.1246 18.9637ZM72.1246 0C43.7046 0 18.7846 20.3629 11.5346 49.524C2.72462 84.9603 22.7446 121.382 56.1746 130.732C61.4146 132.195 66.8046 132.937 72.1846 132.937C100.605 132.937 125.525 112.574 132.775 83.4127C141.585 47.9763 121.565 11.5542 88.1346 2.20483C82.8946 0.742011 77.5046 0 72.1246 0V0Z" fill="#F8F1C9"/>
<path d="M72.1146 53.4354C73.1646 53.4354 74.2246 53.5838 75.2746 53.8806C79.5546 55.0785 81.7946 58.1737 82.7546 59.9121C83.7146 61.6506 85.1446 65.2546 84.0146 69.7915C82.5946 75.5156 77.7246 79.5012 72.1646 79.5012C71.1146 79.5012 70.0546 79.3528 69.0046 79.056C62.4546 77.2222 58.5346 70.0883 60.2546 63.1452C61.6746 57.4211 66.5446 53.4354 72.1046 53.4354" fill="#F8F1C9"/>
<path d="M187.705 56.6684C189.315 56.6684 190.955 56.838 192.605 57.1772C206.245 60.0286 215.115 74.0526 212.435 88.5112C210.075 101.221 199.545 110.04 187.765 110.04C186.155 110.04 184.515 109.871 182.865 109.531C169.225 106.68 160.355 92.6559 163.035 78.1973C165.395 65.4877 175.925 56.6684 187.705 56.6684ZM187.705 39.4325C167.985 39.4325 150.905 54.3363 147.085 74.8582C144.945 86.37 147.165 98.0726 153.325 107.814C159.485 117.556 168.865 124.17 179.725 126.439C182.375 126.99 185.075 127.276 187.765 127.276C207.485 127.276 224.565 112.372 228.385 91.8503C230.525 80.3385 228.305 68.6359 222.145 58.8944C215.985 49.1528 206.605 42.5383 195.745 40.2699C193.095 39.7187 190.395 39.4325 187.705 39.4325Z" fill="#F8F1C9"/>
<path d="M279.415 81.07C281.025 81.07 282.665 81.2396 284.315 81.5788C297.955 84.4302 306.825 98.4542 304.145 112.913C301.785 125.622 291.255 134.442 279.475 134.442C277.865 134.442 276.225 134.272 274.575 133.933C260.935 131.082 252.065 117.058 254.745 102.599C257.105 89.8893 267.635 81.07 279.415 81.07ZM279.415 63.8341C259.695 63.8341 242.615 78.7379 238.795 99.2598C236.655 110.772 238.875 122.474 245.035 132.216C251.195 141.957 260.575 148.572 271.435 150.84C274.085 151.391 276.785 151.678 279.475 151.678C299.195 151.678 316.275 136.774 320.095 116.252C322.235 104.74 320.015 93.0376 313.855 83.296C307.695 73.5545 298.315 66.94 287.455 64.6715C284.805 64.1203 282.105 63.8341 279.415 63.8341Z" fill="#F8F1C9"/>
<path d="M351.625 149.324C353.235 149.324 354.875 149.494 356.525 149.833C370.165 152.685 379.035 166.709 376.355 181.167C373.995 193.877 363.465 202.696 351.685 202.696C350.075 202.696 348.435 202.527 346.785 202.188C333.145 199.336 324.275 185.312 326.955 170.853C329.315 158.144 339.845 149.324 351.625 149.324ZM351.625 132.089C331.905 132.089 314.825 146.992 311.005 167.514C308.865 179.026 311.085 190.729 317.245 200.47C323.405 210.212 332.785 216.826 343.645 219.095C346.295 219.646 348.995 219.932 351.685 219.932C371.405 219.932 388.485 205.028 392.305 184.506C396.725 160.751 382.085 137.611 359.675 132.926C357.025 132.375 354.325 132.089 351.635 132.089H351.625Z" fill="#F8F1C9"/>
<path d="M396.115 238.419C397.725 238.419 399.365 238.588 401.015 238.928C414.655 241.779 423.525 255.803 420.845 270.262C418.485 282.971 407.955 291.791 396.175 291.791C394.565 291.791 392.925 291.621 391.275 291.282C377.635 288.43 368.765 274.406 371.445 259.948C373.805 247.238 384.335 238.419 396.115 238.419ZM396.115 221.183C376.395 221.183 359.315 236.087 355.495 256.609C353.355 268.12 355.575 279.823 361.735 289.565C367.895 299.306 377.275 305.921 388.135 308.189C390.785 308.74 393.485 309.027 396.175 309.027C415.895 309.027 432.975 294.123 436.795 273.601C441.215 249.846 426.575 226.706 404.165 222.02C401.515 221.469 398.815 221.183 396.125 221.183H396.115Z" fill="#F8F1C9"/>
<path d="M18.2247 332.464C24.0547 332.464 27.9947 326.146 25.6947 320.475C18.3447 302.338 14.5547 284.318 17.0047 265.365C24.8847 204.361 72.3147 170.991 145.665 170.991C158.545 170.991 172.225 172.019 186.635 174.108C261.455 184.962 320.465 234.73 322.255 323.899C322.355 328.658 326.015 332.464 330.505 332.464C335.085 332.464 338.805 328.51 338.775 323.655C337.595 149.399 145.675 153.745 145.675 153.745C58.4747 153.745 9.30471 197.947 0.904713 263.022C-2.02529 285.749 2.39471 306.705 10.7947 327.312C12.0747 330.45 15.0147 332.464 18.2347 332.464H18.2247Z" fill="#F8F1C9"/>
<path d="M171.525 332.464C178.785 332.464 182.325 323.093 177.095 317.761C160.305 300.642 138.885 294.833 123.085 290.55C102.225 284.901 97.7047 283.385 97.7047 274.703C97.7047 269.106 103.165 257.171 145.655 257.171H154.685C201.775 257.171 213.815 270.166 223.755 279.802C233.635 289.374 240.405 304.203 240.605 323.867C240.655 328.605 244.225 332.453 248.695 332.453C253.245 332.453 256.885 328.488 256.795 323.665C256.685 317.825 256.095 311.995 254.935 306.207C251.725 290.222 240.695 239.924 145.655 239.924L141.625 239.966C84.0247 239.966 81.4446 262.746 81.4446 274.703C81.4446 314.199 134.915 298.405 165.895 330.015C167.415 331.562 169.415 332.453 171.525 332.453V332.464Z" fill="#F8F1C9"/>
</svg>
